<svg xmlns="http://www.w3.org/2000/svg" width="20px" height="20px" viewBox="0 0 14 14">
    <path d="M3.134 10.693c-.592-.114-1.35-1.073-1.611-2.038-.485-1.794.224-4.629 1.28-5.11.737-.336 5.889-.293 6.724.056.766.32 1.327 1.138 1.74 2.536.274.925.267 1.05-.104 2.044-.476 1.27-1.47 2.354-2.318 2.523-.666.134-5.01.125-5.711-.01z"
          fill="#f2f2f2" stroke="#f2f2f2" stroke-linecap="round" stroke-dashoffset="1.867" stroke-width="0.2"/>
    <g fill="none" stroke="#6e6e6e">
        <path d="M3.733 2.585C.955 2.585.955 7.149.955 7.149" stroke="none"/>
        <path d="M13.06 3.577l-1.588 4.96h0M13.06 10.522l-1.588-4.96M3.534 2.982c-2.58 0-2.58 4.167-2.58 4.167M3.534 11.118c-2.58 0-2.58-3.97-2.58-3.97M3.534 2.982h4.961M8.495 2.982c2.382 0 2.977 2.58 2.977 2.58M3.534 11.118h4.961M8.495 11.118c1.985 0 2.977-2.58 2.977-2.58"
              stroke-width="1"/>
    </g>
</svg>